<svg xmlns="http://www.w3.org/2000/svg" width="1200" height="800" viewBox="0 0 1200 800">
  <defs>
    <linearGradient id="g1" x1="0" y1="0" x2="1" y2="1">
      <stop offset="0%" stop-color="#60a5fa"/>
      <stop offset="100%" stop-color="#7c3aed"/>
    </linearGradient>
  </defs>
  <rect width="100%" height="100%" fill="#f0f9ff"/>
  <!-- stylized water -->
  <g fill="none" stroke="#3b82f6" stroke-width="6" opacity="0.35">
    <path d="M0 620 C200 560 400 660 600 620 C800 580 1000 640 1200 600"/>
    <path d="M0 660 C220 600 420 700 600 660 C780 620 980 680 1200 640"/>
  </g>
  <!-- stylized shells (opera house) -->
  <g transform="translate(300,220) scale(1.4)">
    <path d="M20 180 Q80 20 140 180" fill="#fff" stroke="#93c5fd" stroke-width="6"/>
    <path d="M90 180 Q150 10 210 180" fill="#fff" stroke="#60a5fa" stroke-width="6"/>
    <path d="M160 180 Q220 30 280 180" fill="#fff" stroke="#3b82f6" stroke-width="6"/>
  </g>
  <!-- skyline hint -->
  <g transform="translate(60,120)" opacity="0.6">
    <rect x="20" y="260" width="40" height="80" fill="#c7ddff"/>
    <rect x="80" y="240" width="50" height="100" fill="#a9d1ff"/>
    <rect x="150" y="250" width="40" height="90" fill="#c7ddff"/>
  </g>
  <text x="60" y="740" font-family="Poppins, sans-serif" font-size="32" fill="#0f172a">Sydney</text>
</svg>